<svg xmlns="http://www.w3.org/2000/svg" width="157.347" height="200" viewBox="0 0 157.347 200"><path d="M21.458,178A13.349,13.349,0,0,1,8.124,164.667v-88h8.889v88a4.45,4.45,0,0,0,4.445,4.444h99.555a4.449,4.449,0,0,0,4.445-4.444V88.04h-16a4.444,4.444,0,0,1,0-8.889h16V57.705h-16a4.444,4.444,0,0,1,0-8.889h16V27.37h-16a4.444,4.444,0,0,1,0-8.889h16V-8.667a4.449,4.449,0,0,0-4.445-4.444H21.458a4.45,4.45,0,0,0-4.445,4.444v6.222H8.124V-8.667A13.348,13.348,0,0,1,21.458-22h99.555A13.348,13.348,0,0,1,134.347-8.667V164.667A13.348,13.348,0,0,1,121.013,178Zm24.889-48A24.812,24.812,0,0,1,59.68,107.933V14a12,12,0,0,1,24,0v94.417A24.9,24.9,0,1,1,46.347,130ZM68.57,14V114.221a16,16,0,1,0,6.222.175V14a3.111,3.111,0,0,0-6.222,0ZM4.555,64.222V58.888a4.444,4.444,0,0,1,8.889,0v5.334a4.444,4.444,0,1,1-8.889,0Zm20.04-4.8L21.063,55.89A4.445,4.445,0,0,1,27.348,49.6l3.532,3.532a4.445,4.445,0,0,1-6.286,6.286Zm-38.351,0a4.446,4.446,0,0,1,0-6.286l3.532-3.532a4.445,4.445,0,0,1,6.286,0,4.445,4.445,0,0,1,0,6.286L-7.47,59.422a4.431,4.431,0,0,1-3.143,1.3A4.431,4.431,0,0,1-13.756,59.422Zm7.645-22.311A14.667,14.667,0,1,1,8.556,51.777,14.684,14.684,0,0,1-6.112,37.111Zm8.889,0a5.778,5.778,0,1,0,5.778-5.778A5.785,5.785,0,0,0,2.777,37.111Zm27.908,4.438a4.445,4.445,0,0,1,0-8.89h5a4.445,4.445,0,0,1,0,8.89Zm-49.241,0A4.445,4.445,0,0,1-23,37.1a4.445,4.445,0,0,1,4.445-4.445h5A4.445,4.445,0,0,1-9.116,37.1a4.445,4.445,0,0,1-4.445,4.445ZM21.063,24.6a4.444,4.444,0,0,1,0-6.286l3.532-3.532a4.445,4.445,0,1,1,6.286,6.286L27.348,24.6a4.445,4.445,0,0,1-6.286,0Zm-31.287,0-3.532-3.532a4.446,4.446,0,0,1,0-6.286,4.446,4.446,0,0,1,6.286,0l3.532,3.533a4.445,4.445,0,0,1,0,6.286,4.431,4.431,0,0,1-3.142,1.3A4.434,4.434,0,0,1-10.224,24.6Zm14.779-9.27V10a4.444,4.444,0,0,1,8.889,0v5.334a4.444,4.444,0,1,1-8.889,0Z" transform="translate(23 22)"/></svg>